<?xml version="1.0" encoding="iso-8859-1"?>
<!-- Generator: Adobe Illustrator 19.0.0, SVG Export Plug-In . SVG Version: 6.00 Build 0)  -->
<svg version="1.1" id="Capa_1" xmlns="http://www.w3.org/2000/svg" xmlns:xlink="http://www.w3.org/1999/xlink" x="0px" y="0px"
	 viewBox="0 0 512 512" style="enable-background:new 0 0 512 512;" xml:space="preserve">
<g>
	<g>
		<path style="fill:#d99578;" d="M512,150.875v-46.042C512,82.313,493.688,64,471.167,64c-10.74,0-21.26,4.354-28.875,11.958l-8.927,8.927l14.427-72.135
			c0.625-3.125-0.188-6.375-2.208-8.854C443.552,1.438,440.531,0,437.333,0H266.667c-3.198,0-6.219,1.438-8.25,3.896
			c-2.021,2.479-2.833,5.729-2.208,8.854l14.422,72.128l-8.922-8.919C254.104,68.354,243.583,64,232.844,64
			C210.323,64,192,82.313,192,104.833v46.042c0,8.063,2.375,15.896,6.865,22.646l33.647,50.477l-21.824,32.732
			c-8.098,12.168-13.401,25.698-16.238,39.801l-13.845-19.384c-6.5-9.083-9.938-19.813-9.938-30.979v-64.833
			c0-5.896-4.771-10.667-10.667-10.667h-42.667c-5.896,0-10.667,4.771-10.667,10.667v64.833c0,11.167-3.438,21.896-9.927,30.979
			L11.281,396.792C3.896,407.125,0,419.292,0,431.979c0,20.292,10.073,39.125,26.958,50.375l41.792,27.854
			c1.75,1.167,3.813,1.792,5.917,1.792h128c2.104,0,4.167-0.625,5.917-1.792l41.802-27.854c12.296-8.198,20.85-20.474,24.658-34.354
			h162.29c3.354,0,6.521-1.583,8.531-4.271l43.885-58.5c14.354-19.146,22.25-42.854,22.25-66.771
			c0-22.042-6.458-43.375-18.688-61.729l-21.824-32.732l33.658-50.477C509.635,166.792,512,158.958,512,150.875z M216.615,161.688
			c-2.146-3.229-3.281-6.958-3.281-10.813v-46.042c0-10.75,8.75-19.5,19.51-19.5c5.125,0,10.156,2.083,13.792,5.708l30.026,30.026
			c0.163,2.275,0.672,4.507,0.672,6.786c0,18.938-5.542,37.25-16.042,52.979l-15.96,23.935L216.615,161.688z M238.552,464.604
			l-39.115,26.063H77.896l-39.104-26.063c-10.927-7.292-17.458-19.479-17.458-32.625c0-8.208,2.521-16.083,7.302-22.771
			l85.458-119.646c9.094-12.75,13.906-27.75,13.906-43.396V192h21.333v54.167c0,15.646,4.813,30.667,13.917,43.396l85.458,119.646
			c4.771,6.667,7.292,14.542,7.292,22.771C256,445.125,249.479,457.313,238.552,464.604z M475.563,268.563
			c9.885,14.833,15.104,32.083,15.104,49.896c0,19.333-6.385,38.5-17.979,53.979L432,426.667H276.924
			c-0.938-10.746-4.53-21.003-10.862-29.875l-52.345-73.286c-0.184-1.676-0.384-3.352-0.384-5.047
			c0-17.792,5.229-35.063,15.104-49.896l50.604-75.896c12.833-19.229,19.625-41.646,19.625-64.813c0-7.708-0.76-15.417-2.271-22.917
			l-16.719-83.604h144.646l-16.719,83.604c-1.51,7.563-2.271,15.271-2.271,22.917c0,23.146,6.781,45.563,19.625,64.813
			L475.563,268.563z M490.667,150.875c0,3.854-1.135,7.604-3.271,10.813l-28.728,43.083l-15.96-23.938
			c-10.49-15.75-16.042-34.063-16.042-52.979c0-2.258,0.509-4.509,0.671-6.775l30.027-30.038c3.646-3.625,8.677-5.708,13.802-5.708
			c10.75,0,19.5,8.75,19.5,19.5V150.875z"/>
	</g>
</g>
<g>
</g>
<g>
</g>
<g>
</g>
<g>
</g>
<g>
</g>
<g>
</g>
<g>
</g>
<g>
</g>
<g>
</g>
<g>
</g>
<g>
</g>
<g>
</g>
<g>
</g>
<g>
</g>
<g>
</g>
</svg>
